<?xml version="1.0" encoding="utf-8"?>
<!-- Generator: Adobe Illustrator 21.0.0, SVG Export Plug-In . SVG Version: 6.00 Build 0)  -->
<svg version="1.1" id="Layer_1" xmlns="http://www.w3.org/2000/svg" xmlns:xlink="http://www.w3.org/1999/xlink" x="0px" y="0px"
	 viewBox="0 0 300 300" style="enable-background:new 0 0 300 300;" xml:space="preserve">
<style type="text/css">
	.st0{fill:#F9F9F9;}
</style>
<g id="Guides_For_Artboard_18_">
</g>
<g id="Artwork_17_">
</g>
<g>
	<path class="st0" d="M165,164c-2.3-1.8-4.9-3.1-7.8-4c-2.9-0.9-5.9-1.4-8.9-1.4c-3.2,0-6.2,0.5-9.1,1.5c-2.9,1-5.4,2.4-7.6,4.2
		c-2.2,1.8-3.9,4-5.2,6.6c-1.3,2.6-2,5.4-2,8.6c0,3.2,0.7,6,2.1,8.6c1.4,2.6,3.2,4.8,5.4,6.6c2.2,1.8,4.8,3.3,7.7,4.2
		c2.9,1,5.9,1.5,8.9,1.5c3.2,0,6.2-0.5,9.1-1.6c2.9-1.1,5.5-2.5,7.7-4.3c2.2-1.8,4-4,5.3-6.6c1.3-2.6,2-5.4,2-8.4
		c0-3.3-0.7-6.2-2.1-8.9C169.1,168,167.3,165.8,165,164z"/>
	<path class="st0" d="M135.2,134.4c1.9,1.4,4,2.4,6.3,3.2c2.3,0.7,4.6,1.1,7,1.1c2.2,0,4.5-0.4,6.9-1.1c2.4-0.7,4.5-1.8,6.4-3.3
		c1.9-1.4,3.5-3.2,4.6-5.2c1.2-2,1.8-4.4,1.8-7.2c0-4.9-1.9-8.8-5.8-11.6c-3.9-2.9-8.6-4.3-14.1-4.3c-5.4,0-10,1.5-13.8,4.4
		c-3.8,3-5.7,6.9-5.7,11.7c0,2.8,0.6,5.2,1.8,7.2C131.7,131.3,133.3,133,135.2,134.4z"/>
	<path class="st0" d="M149.9-0.1c-82.8,0-150,67.2-150,150s67.2,150,150,150s150-67.2,150-150S232.7-0.1,149.9-0.1z M195.4,198.9
		c-2.7,5.3-6.4,9.8-11.1,13.6c-4.7,3.8-10.1,6.7-16.3,8.8c-6.2,2-12.8,3.1-19.7,3.1c-7,0-13.6-1.1-19.7-3.3
		c-6.2-2.2-11.6-5.2-16.2-9.2c-4.6-3.9-8.2-8.6-10.9-14c-2.6-5.4-3.9-11.3-3.9-17.8c0-3.9,0.7-7.6,2-11c1.3-3.4,3-6.4,5.1-9.2
		c2.1-2.8,4.4-5.2,7-7.3c2.6-2.1,5.2-3.8,7.8-5.1c-4.9-2.4-9-5.9-12.4-10.7c-3.4-4.7-5.1-9.9-5.1-15.6c0-6.3,1.4-11.9,4.2-16.7
		c2.8-4.8,6.5-8.8,11.1-12.1c4.5-3.3,9.5-5.8,15-7.5c5.5-1.7,10.9-2.6,16.3-2.6c5.3,0,10.7,0.8,16.3,2.5c5.6,1.6,10.6,4.1,15.1,7.4
		c4.5,3.3,8.2,7.3,11.1,12.1c2.9,4.8,4.3,10.4,4.3,16.7c0,2.8-0.5,5.5-1.4,8.2c-0.9,2.7-2.2,5.2-3.8,7.5c-1.6,2.3-3.6,4.4-5.8,6.2
		c-2.2,1.8-4.6,3.4-7.1,4.5c2.9,1.5,5.7,3.3,8.3,5.4c2.6,2.2,5,4.7,7.1,7.5c2.1,2.8,3.8,6,5,9.4c1.2,3.4,1.9,7.2,1.9,11.3
		C199.4,187.7,198.1,193.6,195.4,198.9z"/>
</g>
</svg>
