<?xml version="1.0" encoding="utf-8"?>
<!-- Generator: Adobe Illustrator 21.0.0, SVG Export Plug-In . SVG Version: 6.00 Build 0)  -->
<svg version="1.1" id="Layer_1" xmlns="http://www.w3.org/2000/svg" xmlns:xlink="http://www.w3.org/1999/xlink" x="0px" y="0px"
	 viewBox="0 0 300 300" style="enable-background:new 0 0 300 300;" xml:space="preserve">
<style type="text/css">
	.st0{fill:#F9F9F9;}
</style>
<g id="Guides_For_Artboard_18_">
</g>
<g id="Artwork_17_">
</g>
<path class="st0" d="M149.9-0.1c-82.8,0-150,67.2-150,150s67.2,150,150,150s150-67.2,150-150S232.7-0.1,149.9-0.1z M179.3,217.8
	c0,0-11.5,11.5-14.9,14.5c-2.6,2.2-8.2,6.7-14.3,6.7c-6.1,0-11.7-4.5-14.3-6.7c-3.4-3-14.9-14.5-14.9-14.5
	C107.3,205.1,92,190.7,80.7,176h27.8c1.4,0,2.7-0.9,3.2-2.2l13.8-38.4l5.7,66.3c0.1,1.6,1.4,2.9,3.1,3.1c0.1,0,0.2,0,0.3,0
	c1.5,0,2.8-1,3.2-2.5l11.6-41.7l5.9,25.5c0.4,1.5,1.7,2.6,3.3,2.6c0,0,0,0,0,0c1.6,0,2.9-1.1,3.3-2.6l8.8-37l6.8,48.3
	c0.2,1.6,1.5,2.8,3.1,2.9c1.6,0.1,3-0.9,3.5-2.4l6.9-22.4h28.8C208.4,190.4,192.9,205,179.3,217.8z M234.8,145.3
	c-1.3,7.6-5,15.6-10.3,23.6h-36.1c0,0,0,0,0,0h0c-1.5,0-2.8,1-3.2,2.4l-3.2,10.4l-7.2-51.1c-0.2-1.6-1.6-2.8-3.2-2.9c0,0,0,0,0,0
	c-1.6-0.1-3.1,1-3.4,2.6l-9.6,40.3l-5.6-24.4c-0.3-1.5-1.7-2.6-3.2-2.6c0,0,0,0,0,0s0,0,0,0c-1.6,0-2.9,1-3.3,2.5l-10.1,36.4
	l-5.4-63c-0.1-1.6-1.4-2.9-2.9-3.1c-0.2,0-0.4,0-0.6,0c-1.3,0.1-2.6,0.9-3,2.2l-18.2,50.7H75.9h0c-5.4-8.1-9.3-16.2-10.6-23.9
	c-2.8-16.9-0.1-30.9,8-41.5c8.1-10.7,20.5-16.8,37.9-18.6c1.7-0.2,3.2-0.2,4.7-0.2c12.3,0,24.6,4.6,34.2,12.3
	C159.6,89.6,172,85,184.2,85c1.5,0,3,0.1,4.7,0.2c17.4,1.9,29.7,8,37.9,18.6C234.9,114.5,237.6,128.4,234.8,145.3z"/>
</svg>
