<?xml version="1.0" encoding="utf-8"?>
<!-- Generator: Adobe Illustrator 21.0.0, SVG Export Plug-In . SVG Version: 6.00 Build 0)  -->
<svg version="1.1" id="Layer_1" xmlns="http://www.w3.org/2000/svg" xmlns:xlink="http://www.w3.org/1999/xlink" x="0px" y="0px"
	 viewBox="0 0 300 300" style="enable-background:new 0 0 300 300;" xml:space="preserve">
<style type="text/css">
	.st0{fill:#F9F9F9;}
</style>
<g>
	<path class="st0" d="M149.9-0.1c-82.8,0-150,67.2-150,150s67.2,150,150,150s150-67.2,150-150S232.7-0.1,149.9-0.1z M204.7,207.2
		h1.9c3.5,0,6.4,2.9,6.4,6.4c0,3.5-2.9,6.4-6.4,6.4h-8h-96.1h-8c-3.5,0-6.4-2.9-6.4-6.4c0-3.5,2.9-6.4,6.4-6.4h1.9
		c2.2-24.9,16.8-44.1,28.2-57.7c-11.4-13.6-26-32.7-28.2-57.7h-1.9c-3.5,0-6.4-2.9-6.4-6.4c0-3.5,2.9-6.4,6.4-6.4h112.2
		c3.5,0,6.4,2.9,6.4,6.4c0,3.5-2.9,6.4-6.4,6.4h-1.9c-2.2,24.9-16.8,44.1-28.2,57.7C187.9,163.1,202.5,182.2,204.7,207.2z"/>
	<path class="st0" d="M137.2,144.7l0.6,0.7c2,2.4,2,5.9,0,8.3l-0.6,0.7c-10.9,13-25.6,30.3-28,52.9c0,0,82.6,0,82.6,0
		c-2.4-22.5-17.1-39.9-28-52.9l-0.6-0.7c-2-2.4-2-5.9,0-8.3l0.6-0.7c10.9-13,25.6-30.3,28-52.9h-82.6
		C111.6,114.4,126.2,131.7,137.2,144.7z M185.3,197.6c0.6,1,0.5,2.2,0,3.2c-0.6,1-1.6,1.6-2.8,1.6h-64.1c-1.1,0-2.2-0.6-2.8-1.6
		c-0.6-1-0.6-2.2,0-3.2c5.1-9,13.1-17.6,23.9-25.6c5-3.7,7.8-8.3,7.8-12.9c0-1.8,1.4-3.2,3.2-3.2c1.8,0,3.2,1.4,3.2,3.2
		c0,4.6,2.8,9.2,7.8,12.9C172.2,180,180.2,188.6,185.3,197.6z M134.6,111.2h31.8c1,0,2,0.5,2.6,1.4c0.6,0.8,0.8,1.9,0.4,2.9
		c-2.6,7.3-6.6,14.2-12,20.6c-2.4,2.9-3.8,6.5-3.8,10.3c0,1.8-1.4,3.2-3.2,3.2c-1.8,0-3.2-1.4-3.2-3.2c0-3.7-1.3-7.4-3.8-10.3
		c-5.4-6.4-9.4-13.3-12-20.6c-0.3-1-0.2-2.1,0.4-2.9C132.6,111.7,133.6,111.2,134.6,111.2z"/>
</g>
</svg>
