<?xml version="1.0" encoding="utf-8"?>
<!-- Generator: Adobe Illustrator 21.0.0, SVG Export Plug-In . SVG Version: 6.00 Build 0)  -->
<svg version="1.1" id="Layer_1" xmlns="http://www.w3.org/2000/svg" xmlns:xlink="http://www.w3.org/1999/xlink" x="0px" y="0px"
	 viewBox="0 0 250 250" style="enable-background:new 0 0 250 250;" xml:space="preserve">
<style type="text/css">
	.st0{fill:#A587B8;}
	.st1{fill:#1E4179;}
	.st2{fill:#3873A6;}
</style>
<g id="New_Symbol_4_2_">
	<path class="st0" d="M175.2,89.2l-0.1,0c-2.2,7-5.6,13.5-10.3,19.2c7.2,0.7,14.1,2.8,20.4,6.1l0-0.1c2.2,1.2,5,1.4,7.6,0.3
		c4.5-1.8,6.7-6.8,4.9-11s-6.8-6.1-11.2-4.3c-0.1,0.1-0.3,0.1-0.4,0.2l0,0c0.1-0.1,0.3-0.1,0.4-0.2c4.5-1.8,6.7-6.8,4.9-11
		s-6.8-6.1-11.2-4.3C177.8,85.2,176.1,87,175.2,89.2z"/>
	<path class="st0" d="M135,64c3.4,6.5,5.6,13.6,6.3,20.9c5.6-4.6,11.9-8,18.7-10.2l0-0.1c2.4-0.7,4.5-2.6,5.6-5.1
		c1.8-4.5-0.1-9.5-4.3-11.2c-4.2-1.7-9.1,0.5-11,4.9c-0.1,0.1-0.1,0.3-0.2,0.4l0,0c0.1-0.1,0.1-0.3,0.2-0.4
		c1.8-4.5-0.1-9.5-4.3-11.2c-4.2-1.7-9.1,0.5-11,4.9c-1,2.4-0.9,4.9,0,7.1L135,64z"/>
	<path class="st0" d="M74.1,160.9l0.1,0c2.1-7,5.7-13.6,10.3-19.3c-7.1-0.7-14.1-2.8-20.4-6.1l-0.1,0.1c-2.2-1.2-5-1.4-7.6-0.3
		c-4.5,1.8-6.7,6.8-4.9,11c1.7,4.2,6.8,6.1,11.2,4.3c0.1-0.1,0.3-0.1,0.4-0.2l0,0c-0.1,0.1-0.3,0.1-0.4,0.2c-4.5,1.8-6.7,6.8-4.9,11
		c1.7,4.2,6.8,6.1,11.2,4.3C71.5,164.9,73.2,163,74.1,160.9z"/>
	<path class="st0" d="M114.4,186.1c-3.4-6.5-5.6-13.6-6.3-20.9c-5.6,4.6-11.9,8-18.8,10.2l0,0.1c-2.4,0.7-4.5,2.6-5.6,5.1
		c-1.8,4.5,0.1,9.5,4.3,11.2s9.1-0.5,11-4.9c0.1-0.1,0.1-0.3,0.2-0.4l0,0c-0.1,0.1-0.1,0.3-0.2,0.4c-1.8,4.5,0.1,9.5,4.3,11.2
		c4.2,1.7,9.1-0.5,11-4.9c1-2.4,0.9-4.9,0-7.1L114.4,186.1z"/>
	<path class="st0" d="M192.8,135.4c-2.4-1-4.9-0.9-7.1,0l-0.1-0.2c-6.5,3.4-13.6,5.6-20.9,6.3c4.6,5.6,8,11.9,10.2,18.8l0.1,0
		c0.7,2.4,2.6,4.5,5.1,5.6c4.5,1.8,9.5-0.1,11.2-4.3c1.7-4.2-0.5-9.1-4.9-11c-0.1-0.1-0.3-0.1-0.4-0.2l0,0c0.1,0.1,0.3,0.1,0.4,0.2
		c4.5,1.8,9.5-0.1,11.2-4.3C199.5,142.2,197.3,137.3,192.8,135.4z"/>
	<path class="st0" d="M56.5,114.6c2.4,1,4.9,0.9,7.1,0l0.1,0.1c6.5-3.4,13.6-5.6,20.9-6.3c-4.6-5.6-8-11.9-10.1-18.7l-0.1,0
		c-0.7-2.4-2.6-4.5-5.1-5.6c-4.5-1.8-9.5,0.1-11.2,4.3s0.5,9.1,4.9,11c0.1,0.1,0.3,0.1,0.4,0.2l0,0c-0.1-0.1-0.3-0.1-0.4-0.2
		c-4.5-1.8-9.5,0.1-11.2,4.3S52,112.8,56.5,114.6z"/>
	<path class="st0" d="M160.5,175.6l0.1-0.2c-7-2.2-13.6-5.7-19.3-10.3c-0.7,7.2-2.8,14.1-6.1,20.5l0.1,0.1c-1.2,2.2-1.4,5-0.3,7.6
		c1.8,4.5,6.8,6.7,11,4.9c4.2-1.7,6.1-6.8,4.3-11.2c-0.1-0.1-0.1-0.3-0.2-0.4l0,0c0.1,0.1,0.1,0.3,0.2,0.4c1.8,4.5,6.8,6.7,11,4.9
		s6.1-6.8,4.3-11.2C164.5,178.2,162.6,176.5,160.5,175.6z"/>
	<path class="st0" d="M88.8,74.4l0,0.1c7,2.2,13.6,5.7,19.3,10.3c0.7-7.1,2.8-14.1,6-20.4l-0.1,0c1.2-2.2,1.4-5,0.3-7.6
		c-1.8-4.5-6.8-6.7-11-4.9c-4.2,1.7-6.1,6.8-4.3,11.2c0.1,0.1,0.1,0.3,0.2,0.4l0,0c-0.1-0.1-0.1-0.3-0.2-0.4
		c-1.8-4.5-6.8-6.7-11-4.9C83.9,60,82,65,83.8,69.5C84.8,71.9,86.7,73.6,88.8,74.4z"/>
</g>
<g id="New_Symbol_4_7_">
</g>
<g id="New_Symbol_4_3_">
</g>
<g id="New_Symbol_4_1_">
</g>
<g id="New_Symbol_4_5_">
</g>
<g id="New_Symbol_4">
</g>
<g id="New_Symbol_4_4_">
</g>
<g id="New_Symbol_4_6_">
</g>
<g>
	<path class="st1" d="M110.8,116.3c-6.4-2.7-13.3-4.2-20.7-4.2c-13.2,0-25.3,4.9-34.5,12.9c9.2,8,21.3,12.9,34.5,12.9
		c7.3,0,14.3-1.5,20.7-4.2C107.5,128.4,107.5,121.6,110.8,116.3z"/>
	<path class="st1" d="M133.3,111.2c2.7-6.4,4.2-13.3,4.2-20.7c0-13.2-4.9-25.3-12.9-34.5c-8,9.2-12.9,21.3-12.9,34.5
		c0,7.3,1.5,14.3,4.2,20.7C121.3,107.9,128,107.9,133.3,111.2z"/>
	<path class="st1" d="M131.6,114.8c-2-1.4-4.4-2.1-6.9-2.1c-2.5,0-4.9,0.8-6.9,2.1c1.9,3.7,4.2,7.1,6.9,10.2
		c-3.1-2.7-6.5-5-10.2-6.9c-1.4,2-2.1,4.4-2.1,6.9c0,2.5,0.8,4.9,2.1,6.9c3.7-1.9,7.1-4.2,10.2-6.9c-2.7,3.1-5,6.5-6.9,10.2
		c2,1.4,4.4,2.1,6.9,2.1c2.5,0,4.9-0.8,6.9-2.1c-1.9-3.7-4.2-7.1-6.9-10.2c3.1,2.7,6.5,5,10.2,6.9c1.4-2,2.1-4.4,2.1-6.9
		c0-2.5-0.8-4.9-2.1-6.9c-3.7,1.9-7.1,4.2-10.2,6.9C127.3,121.9,129.7,118.5,131.6,114.8z"/>
	<path class="st1" d="M124.7,141.3c-3,0-6-0.8-8.7-2.5c-2.7,6.4-4.2,13.3-4.2,20.7c0,13.2,4.9,25.3,12.9,34.5
		c8-9.2,12.9-21.3,12.9-34.5c0-7.3-1.5-14.3-4.2-20.7C130.7,140.5,127.7,141.3,124.7,141.3z"/>
	<path class="st1" d="M159.2,112.1c-7.3,0-14.3,1.5-20.7,4.2c3.3,5.3,3.3,12.1,0,17.4c6.4,2.7,13.3,4.2,20.7,4.2
		c13.2,0,25.3-4.9,34.5-12.9C184.4,117,172.4,112.1,159.2,112.1z"/>
</g>
<path class="st2" d="M141.6,90.5c0,7.7-1.6,15.2-4.5,22.1c6.9-2.9,14.4-4.5,22.1-4.5c0.2,0,0.4,0,0.6,0c8.4-9.1,12.9-20.4,13.7-31.9
	c-11.5,0.8-22.8,5.4-31.9,13.7C141.6,90.1,141.6,90.3,141.6,90.5z"/>
<path class="st2" d="M90.1,108.1c7.7,0,15.2,1.6,22.1,4.5c-2.9-6.9-4.5-14.4-4.5-22.1c0-0.2,0-0.4,0-0.6
	C98.7,81.6,87.4,77,75.8,76.2c0.8,11.5,5.4,22.8,13.7,31.9C89.8,108.1,89.9,108.1,90.1,108.1z"/>
<path class="st2" d="M107.7,159.5c0-7.7,1.6-15.2,4.5-22.1c-6.9,2.9-14.4,4.5-22.1,4.5c-0.2,0-0.4,0-0.6,0
	c-8.4,9.1-12.9,20.4-13.7,31.9c11.5-0.8,22.8-5.4,31.9-13.7C107.7,159.9,107.7,159.7,107.7,159.5z"/>
<path class="st2" d="M159.2,141.9c-7.7,0-15.2-1.6-22.1-4.5c2.9,6.9,4.5,14.4,4.5,22.1c0,0.2,0,0.4,0,0.6
	c9.1,8.4,20.4,12.9,31.9,13.7c-0.8-11.5-5.4-22.8-13.7-31.9C159.6,141.9,159.4,141.9,159.2,141.9z"/>
<path class="st0" d="M115.9,133.7c2.3,2.3,5.4,3.6,8.7,3.6s6.4-1.3,8.7-3.6c2.3-2.3,3.6-5.4,3.6-8.7c0-3.3-1.3-6.4-3.6-8.7
	c-2.3-2.3-5.4-3.6-8.7-3.6s-6.4,1.3-8.7,3.6s-3.6,5.4-3.6,8.7C112.3,128.3,113.6,131.4,115.9,133.7z"/>
</svg>
